# xmcd
#
# Track frame offsets: 
#        150
#        16580
#        33492
#        54015
#        75427
#        92510
#        112262
#        130540
#        150225
#        168180
#        189317
#        207780
#
# Disc length: 3052 seconds
#
# Revision: 20
# Processed by: cddbd v1.5.2PL0 Copyright (c) Steve Scherf et al.
# Submitted via: ExactAudioCopyFreeDBPlugin 1.0
#
DISCID=790bea0c
DTITLE=GReeeeN - あっ、ども。おひさしぶりです。
DYEAR=2008
DGENRE=JPop
TTITLE0=SUN SHINE!!!
TTITLE1=またね。
TTITLE2=キセキ
TTITLE3=君想い
TTITLE4=人
TTITLE5=サヨナラから始めよう
TTITLE6=地球号
TTITLE7=旅立ち
TTITLE8=no more war
TTITLE9=BE FREE
TTITLE10=ボヨン科ボヨヨン歌～愉快な大人達～
TTITLE11=涙空
EXTD=YEAR: 2008
EXTT0=
EXTT1=
EXTT2=
EXTT3=
EXTT4=
EXTT5=
EXTT6=
EXTT7=
EXTT8=
EXTT9=
EXTT10=
EXTT11=
PLAYORDER=
